<svg width="145" height="190" xmlns="http://www.w3.org/2000/svg" version="1.1">

 <g>
  <title>Layer 1</title>
  <g id="SvgjsG1052">
   <svg y="-84.91897" x="-107.6721" id="svg_1" height="360" width="360" viewBox="0 0 700 550" data-name="Layer 1" xmlns="http://www.w3.org/2000/svg">
    <path id="svg_2" class="color000 svgShape" fill="#0d0d0dff" d="m344.02825,115.25125a14.52149,14.52149 0 0 0 3.0896,-0.29529a4.47418,4.47418 0 0 0 2.60278,-1.32855a2.27623,2.27623 0 0 0 -0.00024,-2.61158a4.67423,4.67423 0 0 0 -2.27563,-1.73583a13.0663,13.0663 0 0 0 -5.97095,-0.72657a13.45388,13.45388 0 0 0 -2.96265,0.61377a11.63,11.63 0 0 0 -2.69116,1.33942c-0.8623,0.55047 -1.67749,1.1875 -2.55518,1.79486a7.22774,7.22774 0 0 1 -3.00439,1.32581a6.32472,6.32472 0 0 1 -3.24292,-0.45392a13.96316,13.96316 0 0 1 -1.46411,-0.65491l-1.37866,-0.76868a10.92574,10.92574 0 0 0 -8.9253,-1.01654a14.57084,14.57084 0 0 0 -1.4541,0.53858l-0.71509,0.314a3.10984,3.10984 0 0 1 -0.80542,0.28607a0.15771,0.15771 0 0 1 -0.1792,-0.13269l-0.00024,-0.00189l-0.00268,-0.02063a32.05638,32.05638 0 0 1 -0.20289,-6.64557a21.38325,21.38325 0 0 1 1.45218,-6.52811a12.65222,12.65222 0 0 1 4.07862,-5.38581a13.24785,13.24785 0 0 1 6.33935,-2.41888a19.18058,19.18058 0 0 1 12.92993,3.13617a16.91681,16.91681 0 0 1 4.63135,4.91833a20.43394,20.43394 0 0 1 1.46411,3.03943c0.43262,1.04639 0.75708,2.09564 1.07642,3.14832l-0.26465,-0.23389a17.24312,17.24312 0 0 1 2.74683,0.93988a12.74529,12.74529 0 0 1 2.52221,1.41937a7.74947,7.74947 0 0 1 2.00611,2.08728a5.49784,5.49784 0 0 1 0.79956,2.74671a0.05163,0.05163 0 0 1 -0.05054,0.05291a0.055,0.055 0 0 1 -0.05322,-0.05047a5.30328,5.30328 0 0 0 -0.93018,-2.59357a7.38069,7.38069 0 0 0 -2.0332,-1.86609a12.53421,12.53421 0 0 0 -2.4834,-1.25586a16.67345,16.67345 0 0 0 -2.6648,-0.78759a0.35189,0.35189 0 0 1 -0.26293,-0.22809l-0.002,-0.00605a28.91706,28.91706 0 0 0 -2.63891,-5.92822a16.98268,16.98268 0 0 0 -4.4563,-4.53961a18.6245,18.6245 0 0 0 -12.21509,-2.95483a12.24481,12.24481 0 0 0 -5.897,2.14428a12.00592,12.00592 0 0 0 -3.90992,4.9339a21.18126,21.18126 0 0 0 -1.633,6.2627a28.1598,28.1598 0 0 0 0.01367,6.53717l-0.18189,-0.155c0.38062,-0.09424 0.91968,-0.371 1.38868,-0.55371a14.90842,14.90842 0 0 1 1.4917,-0.53144a13.42582,13.42582 0 0 1 3.12207,-0.54681a12.16159,12.16159 0 0 1 6.137,1.4386l1.39136,0.70068a13.39554,13.39554 0 0 0 1.42163,0.56519a5.64514,5.64514 0 0 0 2.91015,0.30066c1.90284,-0.39044 3.39649,-1.98731 5.18848,-3.12934a11.08492,11.08492 0 0 1 2.89966,-1.45495a14.34044,14.34044 0 0 1 3.17383,-0.60614a13.61456,13.61456 0 0 1 6.34546,0.89654a5.34359,5.34359 0 0 1 2.52587,2.11512a2.59268,2.59268 0 0 1 0.31885,0.79516a2.81558,2.81558 0 0 1 0.11206,0.84906a3.18613,3.18613 0 0 1 -0.13134,0.86066a2.701,2.701 0 0 1 -0.45411,0.74628a4.7674,4.7674 0 0 1 -2.93676,1.32507a12.86764,12.86764 0 0 1 -3.1565,0.07867a0.05211,0.05211 0 0 1 -0.04712,-0.05639a0.05449,0.05449 0 0 1 0.05415,-0.04715z"/>
    <path id="svg_3" class="color000 svgShape" fill="#0d0d0dff" d="m339.29314,103.227c-1.293,-1.94361 -2.469,-3.89533 -3.78491,-5.7345a21.81493,21.81493 0 0 0 -2.12817,-2.59107a5.80836,5.80836 0 0 0 -2.80274,-1.76171a4.53984,4.53984 0 0 1 3.31665,1.17456a12.85986,12.85986 0 0 1 2.42676,2.59607a19.55629,19.55629 0 0 1 2.97241,6.31665zm-12.8247,-10.95891l-1.49044,3.50691c-0.47608,1.16657 -0.94312,2.32959 -1.35718,3.50928c-0.4187,1.17816 -0.77124,2.37207 -1.093,3.57995a33.15731,33.15731 0 0 0 -0.6665,3.72278a12.33994,12.33994 0 0 1 -0.10059,-3.86615a20.12487,20.12487 0 0 1 0.91773,-3.76928a21.53011,21.53011 0 0 1 3.78998,-6.68349zm12.8247,12.94934a26.73735,26.73735 0 0 0 -4.53588,0.26447c-1.5,0.19141 -2.99732,0.40222 -4.49146,0.656c-2.99487,0.47052 -5.97241,1.06555 -9.0271,1.44525a39.41583,39.41583 0 0 1 4.36792,-1.4527c1.48023,-0.40479 2.98316,-0.7226 4.49927,-0.979a34.79586,34.79586 0 0 1 4.59668,-0.445a13.85339,13.85339 0 0 1 4.59057,0.51098zm-12.32675,-13.5408a0.77868,0.77868 0 0 0 0,-1.55642a0.77868,0.77868 0 0 0 0,1.55642zm15.81308,17.77426a34.88247,34.88247 0 0 1 1.32691,3.98273a8.57525,8.57525 0 0 1 0.19922,1.05725a3.32912,3.32912 0 0 1 0.02221,0.57428l-0.02246,0.50983a16.06354,16.06354 0 0 0 0.10547,2.04394a10.408,10.408 0 0 1 -0.03271,2.152l-0.18677,2.08026c-0.12744,1.37988 -0.24707,2.76123 -0.31275,4.13782a42.05145,42.05145 0 0 1 -0.31591,4.21857a6.21488,6.21488 0 0 1 -0.77051,2.10949a8.60969,8.60969 0 0 1 -1.42481,1.65827a11.978,11.978 0 0 1 -3.51342,2.42279a12.89216,12.89216 0 0 1 -4.10157,0.94372a12.60449,12.60449 0 0 0 7.041,-3.92108a9.99527,9.99527 0 0 0 1.21484,-1.564a5.27252,5.27252 0 0 0 0.58594,-1.81421c0.19165,-1.30457 0.17334,-2.71 0.24878,-4.10877q0.1311,-2.1046 0.374,-4.18432a35.61006,35.61006 0 0 0 0.40064,-4.085a16.75693,16.75693 0 0 1 0.03637,-2.12811l0.05957,-0.53076a2.69654,2.69654 0 0 0 0.01221,-0.468a9.94893,9.94893 0 0 0 -0.11523,-1.00537c-0.19381,-1.36441 -0.53097,-2.71945 -0.83102,-4.08133zm-10.95263,27.33063a8.68982,8.68982 0 0 1 -3.48,-0.86261a11.30366,11.30366 0 0 1 -3.01758,-2.01868a11.64621,11.64621 0 0 1 -2.23731,-2.85351a11.13827,11.13827 0 0 1 -1.25073,-3.35468c0.64722,1.00806 1.22583,2.00507 1.92944,2.91291a18.08579,18.08579 0 0 0 2.26416,2.53527a17.01855,17.01855 0 0 0 2.69312,2.06788a18.88529,18.88529 0 0 0 3.0989,1.57342zm-7.672,-25.33739s-2.458,6.10009 -2.31349,8.03005l-1.16287,-0.31129s0.23833,-7.00678 -3.37231,-6.17264a3.17444,3.17444 0 0 0 -2.30878,2.42417a6.57057,6.57057 0 0 0 2.19472,6.92356l0.4358,3.05057s-3.54862,2.2344 -5.35407,-13.69986a12.13473,12.13473 0 0 1 11.881,-0.24456z"/>
    <path id="svg_4" class="color000 svgShape" fill="#0d0d0dff" d="m319.74456,121.77768a1.35093,1.35093 0 0 1 -0.23706,0.88153a1.5399,1.5399 0 0 1 -0.75488,0.60223a1.2489,1.2489 0 0 1 -1.06006,-0.11517a1.053,1.053 0 0 1 -0.50049,-0.80829a4.85857,4.85857 0 0 0 0.76782,0.07519a1.58049,1.58049 0 0 0 0.467,-0.09655c0.32133,-0.10187 0.70927,-0.33118 1.31767,-0.53894zm23.71973,-6.84821c-1.02686,0.0863 -1.92017,0.07184 -2.8208,0.13007c-0.44971,0.00879 -0.89087,0.06091 -1.34522,0.10052c-0.4602,0.03565 -0.90845,0.12579 -1.437,0.16284a3.725,3.725 0 0 1 2.7312,-1.26147a4.8389,4.8389 0 0 1 1.51538,0.17053a3.4334,3.4334 0 0 1 1.35644,0.69751zm-9.71192,0.00574c-1.23681,0.1225 -2.37036,0.12243 -3.50195,0.1997c-0.56494,0.02826 -1.11841,0.09638 -1.68213,0.15973c-0.5625,0.08026 -1.11377,0.197 -1.73413,0.31964a3.8864,3.8864 0 0 1 1.52808,-1.07232a6.21945,6.21945 0 0 1 1.8247,-0.40448a7.25517,7.25517 0 0 1 1.84229,0.13782a5.14482,5.14482 0 0 1 1.72314,0.65991zm5.14263,5.90863a2.18162,2.18162 0 0 1 0.84277,1.07623a1.802,1.802 0 0 1 -0.08764,1.54315a1.83255,1.83255 0 0 1 -1.312,0.82379a2.51184,2.51184 0 0 1 -1.34839,-0.20587a4.37712,4.37712 0 0 1 0.593,-0.28711l0.529,-0.25384a1.75739,1.75739 0 0 0 0.67724,-0.58435a3.93807,3.93807 0 0 0 0.10602,-2.112zm1.02075,-2.33464a0.77867,0.77867 0 0 0 0,-1.55641a0.77867,0.77867 0 0 0 0,1.55641zm-8.84043,0.06226a0.77868,0.77868 0 0 0 0,-1.55642a0.77868,0.77868 0 0 0 0,1.55642zm7.12627,7.87547a2.32211,2.32211 0 0 1 -1.08056,1.03363a4.00827,4.00827 0 0 1 -1.43555,0.40924a4.66225,4.66225 0 0 1 -1.46387,-0.10376a3.76616,3.76616 0 0 1 -1.34082,-0.592a9.57688,9.57688 0 0 1 1.40308,-0.18579c0.44677,-0.05323 0.88232,-0.057 1.3081,-0.11341a12.90144,12.90144 0 0 0 2.60962,-0.44791z"/>
    <path id="svg_5" class="color000 svgShape" fill="#ff8e3c" d="m318.22683,140.24362c0.99,2.22 1.87988,4.47 2.73,6.74c1.34009,-0.78 2.71,-1.5 4.05982,-2.24c1.45019,-0.76 2.90014,-1.52 4.39013,-2.22c-5.02004,1.62002 -10.8799,-2.09 -11.17995,-2.28zm74.98,43.79c-28.1101,-65.73 -37.42993,-46.39 -40.28,-50.83a4.04448,4.04448 0 0 1 0.43994,1.89a3.74334,3.74334 0 0 1 -0.7998,2.25a8.34,8.34 0 0 1 -4.17017,2.25a17.002,17.002 0 0 1 -2.31,0.42l-1.1399,0.14c-0.35009,0.06 -0.73,0.14 -1.09009,0.22a27.0016,27.0016 0 0 0 -4.30981,1.37a18.34264,18.34264 0 0 0 -3.90015,2.17l-0.86987,0.7l-0.8,0.77l-1.4602,1.76a11.37826,11.37826 0 0 1 -1.93994,1.73a24.40638,24.40638 0 0 0 0.51,4.98a25.25381,25.25381 0 0 0 1.56,5.12c0.67994,1.65 1.65992,3.11 2.44,4.84a18.37753,18.37753 0 0 1 1.34008,5.39a29.90763,29.90763 0 0 1 -0.05,5.52a35.01623,35.01623 0 0 0 -0.3999,5.31a22.39951,22.39951 0 0 0 1.12988,5.23c0.53,1.72 1.17994,3.41 1.79,5.12c-1.57983,-3.24 -3.23,-6.56 -3.71,-10.25a10.939,10.939 0 0 1 -0.01,-2.8l0.22,-2.7a29.66726,29.66726 0 0 0 0,-5.33a17.81484,17.81484 0 0 0 -1.21,-5.11c-0.65014,-1.59 -1.67993,-3.18 -2.28,-4.93a22.79788,22.79788 0 0 1 -1.37011,-10.36a10.58271,10.58271 0 0 1 -1.80982,1.06a8.92239,8.92239 0 0 1 -4.57007,0.73a9.35079,9.35079 0 0 0 4.3501,-1.19a10.94092,10.94092 0 0 0 3.3999,-2.87l0.66016,-0.91l0.73975,-0.95l0.83007,-0.86l0.91016,-0.78a19.003,19.003 0 0 1 4.09985,-2.35a26.50909,26.50909 0 0 1 4.5,-1.37c0.3899,-0.07 0.76,-0.14 1.17994,-0.2l1.15014,-0.1c0.77,-0.04 1.5,-0.18 2.24,-0.29a7.88834,7.88834 0 0 0 3.97,-1.81a3.41143,3.41143 0 0 0 0.90992,-1.94a4.46886,4.46886 0 0 0 -0.35987,-2.21c-2.61011,-5.73 -9.40014,-6.42 -9.40014,-6.42c-0.11988,1.89 -0.62989,5.03 -0.62989,5.03c-1.99,4.78 -7.96,5.69 -7.96,5.69c-1.33008,3.11 -3.27,4.69 -5.34009,5.36c-1.37011,0.91 -2.78,1.75 -4.17993,2.59c-1.42016,0.81 -2.83008,1.66 -4.27,2.44l-0.01,0a0.24459,0.24459 0 0 1 -0.33008,-0.1l-0.01,-0.03c-0.85986,-2.37994 -1.68994,-4.76 -2.38989,-7.19a13.51086,13.51086 0 0 1 -0.46,-9.71c0.56006,-1.49 -0.13013,-5.14 -0.13013,-5.14c-4.23,0.1 -5.59008,5.23 -5.59008,5.23a4.75344,4.75344 0 0 0 0.08007,2.4a11.17849,11.17849 0 0 0 0.81006,2.25a24.26273,24.26273 0 0 0 2.51,4.12a23.45112,23.45112 0 0 1 2.46,4.37a10.24291,10.24291 0 0 1 0.98,4.89a14.57764,14.57764 0 0 0 -1.71,-4.54c-0.31006,-0.58 -0.65014,-1.14 -0.99,-1.7a48.24477,48.24477 0 0 0 -1.52,5.11a36.451,36.451 0 0 0 -0.98,5.85a23.32209,23.32209 0 0 0 0.18994,5.85c0.36011,1.92 0.87012,3.89 1.29,5.84a63.87222,63.87222 0 0 1 1.53,11.95a25.98829,25.98829 0 0 1 -0.60009,6.03a15.23312,15.23312 0 0 1 -2.16993,5.07a0.78019,0.78019 0 1 1 -0.40014,-0.12a0.79685,0.79685 0 0 1 0.3601,0.09a16.05579,16.05579 0 0 0 1.71,-5.14a25.3141,25.3141 0 0 0 0.3,-5.9a70.239,70.239 0 0 0 -1.75,-11.77c-0.37988,-1.96 -0.85009,-3.88 -1.2,-5.89a21.06862,21.06862 0 0 1 -0.05,-6.09a37.1488,37.1488 0 0 1 3.24,-10.96q-0.72,-1.2 -1.53,-2.34a17.56316,17.56316 0 0 1 -2.41993,-4.42a9.115,9.115 0 0 1 -0.56006,-2.48a4.46356,4.46356 0 0 1 0.41993,-2.47c-28.50977,2.62 -26.0398,24.66 -26.0398,24.66c-10.45,72.46 11.57984,83.55 11.57984,83.55c1.25,-0.5 3.62011,-5.98 3.62011,-5.98a69.294,69.294 0 0 0 2.24,-11.37a46.09188,46.09188 0 0 0 -0.08008,-11.5c-0.30981,-1.87 -0.76,-3.77 -1.11987,-5.68c-0.36011,-1.91 -0.70019,-3.83 -0.98,-5.76q-0.85511,-5.745 -1.15015,-11.57l-2.59008,-12.82l-1.36988,-6.41c-0.47,-2.13 -0.95,-4.26 -1.55,-6.36c0.75,2.05 1.34008,4.17005 1.91992,6.27c0.58008,2.11 1.1101,4.24 1.62011,6.36c1.03,4.25 2.01,8.52 2.89014,12.8l0.00977,0.06l0,0.02c0.22021,3.84 0.69018,7.69 1.23,11.51q0.39038,2.865 0.92016,5.72c0.32984,1.9 0.76,3.78 1.06006,5.74a34.88455,34.88455 0 0 1 0.28,5.86a47.2361,47.2361 0 0 1 -0.51025,5.83a50.46881,50.46881 0 0 1 -1.12989,5.73a51.76754,51.76754 0 0 1 -1.68994,5.57c9.96,19.05 33.60987,13.82 36.73,11.07995c2.3,-2.02 10.83985,-6.35 15.15992,-8.49a119.59918,119.59918 0 0 1 -11.7,4.72a61.8326,61.8326 0 0 1 -14.08007,3.32c-0.59986,0.07 -1.23,0.02 -1.83985,0.04c-0.3,0 -0.61011,0.02 -0.91992,-0.01l-0.93018,-0.1l-0.91992,-0.11c-0.3,-0.06006 -0.60009,-0.15 -0.8999,-0.22a15.34358,15.34358 0 0 1 -1.76025,-0.5a34.07749,34.07749 0 0 1 -6.60987,-3.02a62.242,62.242 0 0 1 -11.49,-8.7c1.88013,1.5 3.79,2.94 5.78,4.27a65.83889,65.83889 0 0 0 6.08985,3.74c4.19018,2.19 8.72021,4.12 13.42016,3.57a66.72888,66.72888 0 0 0 13.91992,-3.03c2.29,-0.69 4.56006,-1.46 6.81006,-2.26c2.25,-0.77 4.46,-1.61 6.67993,-2.46c0.02,-0.01 0.05,-0.02 0.07007,-0.03c0.57007,-0.28 0.8999,-0.44 0.8999,-0.44l3.49,-9.63c1.13012,-3.21 2.28,-6.42 3.3601,-9.65c1.09009,-3.22 2.11988,-6.47 3.11011,-9.72c0.46973,-1.64 0.98,-3.27 1.37988,-4.92c0.45,-1.55 0.78,-3.13 1.17993,-4.71c-1.2,-1.69 -2.34985,-3.43 -3.42993,-5.2a60.424,60.424 0 0 1 -4.7,-9.21c-0.59009,-1.66 -1.12012,-3.21 -1.84009,-4.75a48.17971,48.17971 0 0 0 -2.35986,-4.5c-0.8501,-1.47 -1.78027,-2.9 -2.76025,-4.3c-0.95,-1.42 -1.98,-2.78 -3.0398,-4.13a49.07247,49.07247 0 0 1 6.48,8.01a37.6403,37.6403 0 0 1 2.57007,4.5a49.56356,49.56356 0 0 1 1.91992,4.8a83.13939,83.13939 0 0 0 4.41992,9.18c0.81006,1.5 1.66016,2.98 2.53,4.45c0.84986,1.49 1.74,2.95 2.63013,4.42c-0.83008,-1.05 -1.62012,-2.14 -2.40015,-3.23a76.09941,76.09941 0 0 1 -1.81,9.8c-0.80982,3.32 -1.82984,6.59 -2.89991,9.84c-1.10009,3.24 -2.29,6.45 -3.60009,9.61c-1.30982,3.16 -2.67994,6.29 -4.23,9.34c3.23,8.47 15.94019,17.43 15.94019,17.43c32.48972,-50.79991 21.65988,-67.60991 21.65988,-67.60991l0.00002,-0.00004zm-54.04,6.57a0.78046,0.78046 0 0 1 0,1.56a0.78046,0.78046 0 0 1 -0.00006,-1.55996l0.00006,-0.00004zm11.27,34.72c1.81006,-0.46 3.63013,-0.85 5.48,-1.13a14.849,14.849 0 0 1 -2.72,-3.59a15.76682,15.76682 0 0 1 -1.04,-2.29a17.78412,17.78412 0 0 1 -0.58007,-2.45a17.10892,17.10892 0 0 1 -0.04,-5a18.04592,18.04592 0 0 1 1.33007,-4.79a18.54558,18.54558 0 0 0 -1.15991,4.82a16.90691,16.90691 0 0 0 0.16992,4.92a16.31231,16.31231 0 0 0 0.6399,2.37a16.04174,16.04174 0 0 0 1.06006,2.21a16.50617,16.50617 0 0 0 3.09008,3.78a0.27154,0.27154 0 0 1 0,0.39a0.25975,0.25975 0 0 1 -0.15991,0.09a55.01318,55.01318 0 0 0 -5.90015,1.3c-1.95,0.54 -3.87988,1.15 -5.77,1.85a67.76022,67.76022 0 0 0 -10.91993,5.18l-0.01,0a0.37131,0.37131 0 0 1 -0.10986,0.05a45.84082,45.84082 0 0 1 -6.86011,0.96a51.5473,51.5473 0 0 1 -6.92016,-0.03a42.78788,42.78788 0 0 1 -6.84986,-1.05a37.18628,37.18628 0 0 1 -6.58007,-2.22a0.47375,0.47375 0 0 1 -0.3,-0.48l0,-0.01l1.31006,-24.78a0.44744,0.44744 0 0 1 0.47021,-0.42a0.43817,0.43817 0 0 1 0.0498,0.01c3.46,0.59 6.98,1.03 10.49,1.33s7.04,0.47 10.57007,0.44a86.66712,86.66712 0 0 0 10.55,-0.69a51.862,51.862 0 0 0 10.27,-2.51a47.53674,47.53674 0 0 1 -10.22,2.83a79.98225,79.98225 0 0 1 -10.59009,0.95c-3.55,0.09 -7.10009,-0.03 -10.63989,-0.26995c-3.37012,-0.25 -6.73,-0.58 -10.08008,-1.13l-1.14013,23.93a38.05234,38.05234 0 0 0 6.08007,2.03a39.70056,39.70056 0 0 0 6.67994,1.06a48.08418,48.08418 0 0 0 6.79,0.07a43.39848,43.39848 0 0 0 6.65015,-0.89c1.75977,-0.99 3.52979,-1.97 5.37988,-2.78a60.63663,60.63663 0 0 1 5.67994,-2.28c1.9201,-0.68006 3.88006,-1.27002 5.85003,-1.78003l0.00004,-0.00002zm7.17993,-84.64a12.30042,12.30042 0 0 0 -2.54,1.68a11.202,11.202 0 0 0 -2.02979,2.26a16.54475,16.54475 0 0 0 -1.49023,2.71c0.14013,-0.5 0.27,-1.01 0.45019,-1.51a11.66826,11.66826 0 0 1 0.7,-1.42a9.13718,9.13718 0 0 1 2.04,-2.43a9.59219,9.59219 0 0 1 5.78,-2.34a13.28989,13.28989 0 0 0 -2.91021,1.05l0.00004,0z"/>
    <path id="svg_6" class="color000 svgShape" fill="#000" d="m371.63641,251.64029c0.36718,5.12658 0.71533,10.254 0.98388,15.38427c0.27979,5.12989 0.5835,10.25891 0.7898,15.39154l0.6709,15.396c0.19726,5.133 0.32714,10.26849 0.417,15.40552l0.00049,0.03888a0.59393,0.59393 0 0 1 -0.22779,0.47564a49.02877,49.02877 0 0 1 -8.8706,5.422a43.22072,43.22072 0 0 1 -9.8,3.33521a27.527,27.527 0 0 1 -10.33106,0.13513a23.34015,23.34015 0 0 1 -9.459,-4.16809l0.28149,0.06616a93.85782,93.85782 0 0 1 -11.03369,1.32013a74.25093,74.25093 0 0 1 -11.13989,-0.07562a43.72605,43.72605 0 0 1 -10.99414,-2.26368a21.74493,21.74493 0 0 1 -9.48584,-6.28436a0.87364,0.87364 0 0 1 -0.197,-0.6543l0.00244,-0.02221c0.66528,-5.94031 1.24268,-11.911 1.77417,-17.875c0.55347,-5.96479 1.00561,-11.93769 1.44165,-17.91236c0.40308,-5.977 0.67627,-11.95984 0.91333,-17.947c0.16821,-5.9881 0.23633,-11.97918 0.11475,-17.97918a0.0897,0.0897 0 0 1 0.08691,-0.09235a0.09092,0.09092 0 0 1 0.092,0.08173a275.78654,275.78654 0 0 1 0.42749,36.02838c-0.25683,6.00427 -0.67285,12 -1.16479,17.98846c-0.5232,5.98816 -1.13745,11.95892 -1.91529,17.93054l-0.19433,-0.67614a20.05247,20.05247 0 0 0 8.675,5.876a43.76182,43.76182 0 0 0 10.564,2.39887a80.91273,80.91273 0 0 0 10.95191,0.41528a89.55492,89.55492 0 0 0 10.95043,-0.96613l0.01685,-0.00256a0.34886,0.34886 0 0 1 0.26514,0.06879a21.98057,21.98057 0 0 0 9.13647,4.18a24.6805,24.6805 0 0 0 10.093,-0.19635a36.70205,36.70205 0 0 0 9.52368,-3.52026a48.55312,48.55312 0 0 0 8.44678,-5.59174l-0.2273,0.51422c-0.29516,-5.12933 -0.55029,-10.26013 -0.738,-15.39349l-0.48389,-15.403c-0.17871,-5.13366 -0.26,-10.271 -0.365,-15.40747c-0.11646,-5.136 -0.15332,-10.275 -0.1709,-15.41473a0.08959,0.08959 0 0 1 0.179,-0.00671l-0.00005,-0.00002z"/>
    <path id="svg_7" class="color000 svgShape" fill="#0d0d0dff" d="m326.83514,259.69339a24.30972,24.30972 0 0 1 -4.48145,-0.66693a27.25032,27.25032 0 0 1 -4.3269,-1.39783a19.127,19.127 0 0 1 -4.00049,-2.217a10.20456,10.20456 0 0 1 -3.05493,-3.37146a15.79555,15.79555 0 0 0 3.48681,2.72143a30.31342,30.31342 0 0 0 3.95533,1.94556c1.354,0.5871 2.7517,1.08368 4.15673,1.57269c1.41016,0.47347 2.82476,0.95864 4.2649,1.41354z"/>
    <path id="svg_8" class="color000 svgShape" fill="#0d0d0dff" d="m336.02605,318.168l-1.26733,-7.52314l-1.29394,-7.513c-0.88746,-5.003 -1.77564,-10.005 -2.823,-14.97369c-0.47071,-2.4953 -1.01856,-4.97327 -1.5437,-7.45691c-0.5752,-2.47131 -1.14991,-4.94336 -1.77344,-7.40216c-0.58569,-2.47 -1.29712,-4.90521 -2.02,-7.33685l-1.15112,-3.62946l-1.3301,-3.57279a84.9094,84.9094 0 0 1 5.24414,14.33941c1.40918,4.89984 2.51587,9.87659 3.55347,14.86139c0.968,4.99964 1.87329,10.01062 2.5996,15.04883c0.72876,5.03715 1.37937,10.0861 1.80542,15.15837z"/>
    <path id="svg_9" class="color000 svgShape" fill="#0d0d0dff" d="m327.17693,319.19058c-0.759,-4.4187 -1.34033,-8.86334 -1.85644,-13.31543c-0.51612,-4.45252 -0.88989,-8.92029 -1.22363,-13.39252c-0.252,-4.47693 -0.47266,-8.96136 -0.40674,-13.45355c0.04248,-2.24524 0.12451,-4.492 0.33691,-6.73169a22.48458,22.48458 0 0 1 1.46875,-6.56067a24.44251,24.44251 0 0 0 -0.97974,6.5968c-0.11206,2.22748 -0.10742,4.46149 -0.05688,6.69361q0.14026,6.69671 0.63452,13.39019c0.24927,4.465 0.63721,8.92218 0.989,13.38349l1.09425,13.38977zm44.55127,-48.25665a83.658,83.658 0 0 1 -8.6709,0.87847l0.66382,-0.70678c0.07422,1.46936 0.155,2.9386 0.13623,4.41089c-0.01513,1.47223 -0.09131,2.94635 -0.13989,4.41961a61.4918,61.4918 0 0 0 0.27271,8.82184c0.123,1.4679 0.29077,2.93433 0.39917,4.40265c0.10888,1.46832 0.18335,2.93774 0.26562,4.40686c0.19312,2.93744 0.271,5.87842 0.2666,8.82208l-0.66943,-0.74463c0.77637,0.12854 1.61157,0.20612 2.42261,0.26178a24.12455,24.12455 0 0 0 2.44531,0.01642a8.694,8.694 0 0 0 2.35766,-0.4411a3.12846,3.12846 0 0 0 1.84327,-1.42828a0.08083,0.08083 0 0 1 0.15014,0.05639a3.33359,3.33359 0 0 1 -1.707,1.98755a8.81722,8.81722 0 0 1 -2.50537,0.86359a16.05993,16.05993 0 0 1 -2.59936,0.29217a20.087,20.087 0 0 1 -2.62012,-0.07031a0.729,0.729 0 0 1 -0.66577,-0.6792l-0.00415,-0.06561c-0.18921,-2.9375 -0.29639,-5.87762 -0.28833,-8.82135c-0.01,-1.47137 -0.02832,-2.94257 -0.01172,-4.41479c0.01587,-1.47229 0.09106,-2.94635 0.12158,-4.41907a61.4569,61.4569 0 0 0 -0.282,-8.82154c-0.14112,-1.46728 -0.30982,-2.93371 -0.41724,-4.40209c-0.11133,-1.46827 -0.123,-2.93958 -0.14136,-4.41077l-0.00024,-0.02948a0.66919,0.66919 0 0 1 0.66089,-0.67755l0.00342,0a83.681,83.681 0 0 1 8.709,0.33185a0.08092,0.08092 0 0 1 0.00488,0.1604l-0.00003,0z"/>
    <path id="svg_10" class="color000 svgShape" fill="#0d0d0dff" d="m372.04412,277.18692a18.0239,18.0239 0 0 1 -4.28418,1.36047a17.81977,17.81977 0 0 1 -4.479,0.38019a17.82167,17.82167 0 0 1 4.28418,-1.36048a18.02131,18.02131 0 0 1 4.479,-0.38018zm0.8457,36.81183q0.55226,2.08419 1.0337,4.18688a13.12586,13.12586 0 0 0 0.58471,2.02137a9.77926,9.77926 0 0 0 1.11133,1.75378c0.42651,0.56641 0.83667,1.19946 1.25659,1.73493c0.41187,0.55358 0.8877,1.09826 1.344,1.64434c0.92846,1.089 1.87036,2.17853 2.78,3.296a102.95642,102.95642 0 0 1 9.97778,14.1615c1.48779,2.48493 2.79541,5.07422 4.03223,7.69318c0.61035,1.31329 1.16626,2.65228 1.74365,3.98016l1.52392,4.069l1.3208,4.135q0.59692,2.053 1.27881,4.08307c0.89307,2.7113 1.92041,5.37585 3.02832,8.01459l-0.01172,-0.02265l0.05225,0.11664l0.01172,0.02222l1.43677,3.31891c0.49975,1.09918 0.92822,2.23364 1.35742,3.36023c-1.09937,-2.149 -2.28589,-4.24414 -3.41065,-6.38422l0.01148,0.02185l-0.06152,-0.11127l-0.01221,-0.023a74.86222,74.86222 0 0 1 -3.58838,-7.88415q-0.78113,-2.02268 -1.47656,-4.07746l-1.43042,-4.02758a108.70651,108.70651 0 0 0 -7.32715,-15.40363c-1.39746,-2.481 -2.94678,-4.87366 -4.50806,-7.25891c-1.59326,-2.365 -3.26367,-4.68011 -4.97876,-6.971l-2.5979,-3.43225a32.47828,32.47828 0 0 1 -2.41577,-3.61615a10.33165,10.33165 0 0 1 -1.0227,-1.97516a13.52437,13.52437 0 0 1 -0.43555,-2.15735l-0.60813,-4.26887zm19.77686,82.20977c-1.98828,-3.19378 -3.94751,-6.39776 -6.00024,-9.54309c-2.00806,-3.17114 -4.05372,-6.31634 -6.17359,-9.40661c-2.14306,-3.082 -4.25342,-6.16169 -6.54736,-9.11078a62.998,62.998 0 0 0 -7.34937,-8.302c-1.30175,-1.17475 -2.94629,-2.3111 -4.3081,-3.64039c-0.718,-0.63507 -1.39478,-1.30883 -2.05469,-1.99847c-0.67993,-0.67133 -1.31519,-1.38165 -1.93774,-2.1026a66.40678,66.40678 0 0 1 -6.69971,-9.20337a73.5503,73.5503 0 0 1 -5.13233,-10.1225a47.31709,47.31709 0 0 1 -3.02124,-10.889a53.28317,53.28317 0 0 0 3.82593,10.53766a73.786,73.786 0 0 0 5.49048,9.73455a76.40922,76.40922 0 0 0 6.80444,8.816c0.62622,0.68286 1.23951,1.37683 1.90479,2.01843c0.64429,0.6637 1.30322,1.31031 1.99853,1.91517c1.33985,1.29022 2.824,2.27349 4.32471,3.60174a62.3398,62.3398 0 0 1 7.50391,8.61554c2.23877,3.0462 4.365,6.17847 6.345,9.3786q2.98791,4.79992 5.77514,9.70935c1.80369,3.30446 3.6157,6.602 5.25144,9.99177zm-60.31104,-77.92452a2.77773,2.77773 0 0 0 -1.34472,0.94471a6.32933,6.32933 0 0 0 -0.89575,1.39416a14.54961,14.54961 0 0 0 -1.115,3.12976a27.67964,27.67964 0 0 0 -0.57837,3.28772c-0.06153,0.55438 -0.13916,1.10529 -0.18726,1.66046l-0.09741,1.67163a102.16661,102.16661 0 0 0 0.259,13.39753l1.26319,13.42c0.37231,4.48938 0.66064,8.98852 0.82275,13.501a120.01249,120.01249 0 0 1 -0.25781,13.57837a60.73318,60.73318 0 0 1 -0.99756,6.75872q-0.34974,1.67176 -0.7732,3.31507a28.98608,28.98608 0 0 0 -0.63085,3.22772a123.8863,123.8863 0 0 0 -0.855,13.38238c-0.15772,4.48871 -0.1504,8.98371 -0.17383,13.48334a170.33665,170.33665 0 0 1 -0.33838,-27.03625a30.484,30.484 0 0 1 0.53906,-3.40961c0.24756,-1.09051 0.488,-2.17664 0.69263,-3.26715a59.09963,59.09963 0 0 0 0.84692,-6.59522a123.7567,123.7567 0 0 0 0.15894,-13.38012c-0.12622,-4.47522 -0.40723,-8.95252 -0.72,-13.42865c-0.2898,-4.47675 -0.72657,-8.94458 -0.9458,-13.465a100.85592,100.85592 0 0 1 0.24,-13.55475l0.1997,-1.68725c0.08228,-0.56079 0.19458,-1.11872 0.29053,-1.67707a28.21656,28.21656 0 0 1 0.78809,-3.31a14.65805,14.65805 0 0 1 1.33471,-3.13385a6.50768,6.50768 0 0 1 1.03321,-1.35547a2.84,2.84 0 0 1 1.44221,-0.85218zm-32.95459,-3.29954a19.10755,19.10755 0 0 0 -0.93188,4.94593a31.51638,31.51638 0 0 0 0.07544,5.02374a44.99081,44.99081 0 0 0 0.76074,4.96c0.16553,0.81946 0.38013,1.62964 0.56738,2.44379l0.69214,2.41205a0.68325,0.68325 0 0 1 0.01831,0.08966l1.42676,11.0747l1.33006,11.0881c0.82178,7.39843 1.75415,14.79089 2.39307,22.20153c0.67944,7.41425 1.25927,14.84015 1.63378,22.28156c0.1753,3.721 0.37964,7.44226 0.38477,11.17212c0.01514,1.86377 0.0044,3.72913 -0.06518,5.59344a30.34767,30.34767 0 0 1 -0.58106,5.5586a35.58948,35.58948 0 0 0 0.18115,-5.56159c-0.04028,-1.85583 -0.13891,-3.71106 -0.26343,-5.56457c-0.26562,-3.70593 -0.51269,-7.4126 -0.84887,-11.11444c-0.67871,-7.40271 -1.41724,-14.8006 -2.16333,-22.199l-0.561,-5.55273l-0.62134,-5.54321l-1.19456,-11.08977l-1.12817,-11.098l-1.03149,-11.11127l0.01855,0.08924l-0.61767,-2.48474c-0.16211,-0.83881 -0.35059,-1.67121 -0.48975,-2.51331a37.95383,37.95383 0 0 1 -0.50439,-5.0918a32.07157,32.07157 0 0 1 0.22192,-5.10144a17.635,17.635 0 0 1 1.29805,-4.90859zm65.5022,15.52265a9.334,9.334 0 0 1 1.2544,2.24432a11.14287,11.14287 0 0 1 0.68261,2.49872a6.67122,6.67122 0 0 1 -0.10351,2.64606a3.16482,3.16482 0 0 1 -1.53467,2.11236a4.35107,4.35107 0 0 0 0.7666,-2.25a10.29252,10.29252 0 0 0 -0.11792,-2.36951c-0.22021,-1.60131 -0.63305,-3.19293 -0.94751,-4.88195zm-51.84717,-2.44544a12.119,12.119 0 0 1 -0.4309,5.4206a7.3163,7.3163 0 0 1 -1.3396,2.47528a2.75688,2.75688 0 0 1 -2.54248,1.07135a3.238,3.238 0 0 0 1.92187,-1.54444a11.2509,11.2509 0 0 0 1.00952,-2.31024c0.5249,-1.6438 0.8877,-3.35822 1.38159,-5.11255z"/>
    <path id="svg_11" class="color000 svgShape" fill="#0d0d0dff" d="m373.82269,312.1672a37.01463,37.01463 0 0 1 0.63916,6.0799a36.59114,36.59114 0 0 1 -0.25562,6.108a36.59268,36.59268 0 0 1 -0.63916,-6.0799a37.01207,37.01207 0 0 1 0.25562,-6.108zm55.004,83.06641a9.19036,9.19036 0 0 0 -6.29,-5.35c-3.3899,-0.86 -6.36988,-5.02 -6.36988,-5.02s-3.75,-7.85 -7.61987,-5.73c-2.42017,1.32 -2.3,5.1 -1.86011,7.75a9.74462,9.74462 0 0 1 -1.67016,7.5c-3.3899,4.4 -8.21973,3.26 -10.32984,2.47a4.33355,4.33355 0 0 0 -3.09008,-0.07c-4.73,1.78 -0.17994,8.85 -0.17994,8.85a6.86353,6.86353 0 0 1 2.03,-2.16a7.71,7.71 0 0 1 2.77,-1.24a7.55148,7.55148 0 0 1 3.03,-0.09a5.71866,5.71866 0 0 1 2.74,1.18a18.24534,18.24534 0 0 0 -5.43994,0.37a16.90333,16.90333 0 0 0 -2.53027,0.81c-0.85987,0.32 -1.66992,0.75 -2.59986,1.13c0,0 -0.95,2.92 -2.3,7a9.27043,9.27043 0 0 1 2.51,-1.48a12.16667,12.16667 0 0 1 2.8,-0.81a8.257,8.257 0 0 1 3.01,0.07995a3.04648,3.04648 0 0 1 2.36011,1.84a4.06767,4.06767 0 0 0 -2.52,-0.68a21.669,21.669 0 0 0 -2.62012,0.25l-2.71,0.44c-0.91015,0.15 -1.84009,0.29 -2.83008,0.36c-0.72,2.2 -1.56,4.73 -2.42993,7.33a8.08519,8.08519 0 0 1 2.42993,-1.72a9.2608,9.2608 0 0 1 2.88013,-0.88a7.4225,7.4225 0 0 1 3.07007,0.2a4.89258,4.89258 0 0 1 2.50977,1.71a11.87414,11.87414 0 0 0 -2.72,-0.56a15.7975,15.7975 0 0 0 -2.65991,0.13c-1.78,0.24 -3.55,0.73 -5.51,1.12c-1.45,4.36 -2.98,8.9 -4.17993,12.32c-3.23,9.24 0.50977,10.63 0.50977,10.63a3.41812,3.41812 0 0 1 -0.69971,-2.98a3.2876,3.2876 0 0 1 2.50977,-1.91a4.52068,4.52068 0 0 1 1.64013,-0.01a7.75659,7.75659 0 0 1 1.52,0.48a6.988,6.988 0 0 0 2.86987,0.35a9.78835,9.78835 0 0 0 5.25,-2.38a23.329,23.329 0 0 0 3.95,-4.39l0.04,-0.06c1.87011,-3.29 3.88012,-6.5 5.99,-9.66c1.07006,-1.58 2.17993,-3.14 3.35009,-4.66c0.59009,-0.76 1.2,-1.51 1.86011,-2.23c0.32983,-0.36 0.7,-0.7 1.0398,-1.05c0.38012,-0.32 0.84008,-0.69 1.17016,-0.94a28.9288,28.9288 0 0 0 3.93994,-3.89c1.22,-1.42 2.37012,-2.92 3.45,-4.46a56.49561,56.49561 0 0 0 2.99,-4.8a14.15748,14.15748 0 0 0 1.8501,-5.3a13.09267,13.09267 0 0 1 -1.41015,5.52a39.03433,39.03433 0 0 1 -2.71,5.06q-1.53,2.415 -3.2998,4.7a25.03245,25.03245 0 0 1 -4.01025,4.24a20.81481,20.81481 0 0 0 -3.72,4.03c-1.1399,1.5 -2.21,3.05 -3.26,4.61c-2.10987,3.14 -4.11988,6.36005 -6.07984,9.58l-0.01,0.03l-0.03,0.03a23.05861,23.05861 0 0 1 -4.3601,4.58a10.88668,10.88668 0 0 1 -5.93995,2.35a7.89364,7.89364 0 0 1 -3.18994,-0.55a7.61137,7.61137 0 0 0 -1.38012,-0.55a3.8336,3.8336 0 0 0 -1.42994,-0.1a2.89583,2.89583 0 0 0 -2.32006,1.49a3.37727,3.37727 0 0 0 0.42993,2.87c8.03027,8.53 19.7102,-6.79 26.8601,-20.04c7.15015,-13.25 12.65992,-15.56 12.65992,-15.56c7.5601,-3.8399 7.76029,-8.5299 6.29008,-12.07995zm-13.52979,6.6c-0.23,3.69 -4.20019,5.04 -5.73,4.07c-1.53027,-0.96 -1.4502,-4.35 0.17993,-7.56c1.62988,-3.21 4.2,-5.03 5.73,-4.07s0.07984,3.27006 -0.17993,7.56004l0,-0.00004zm-81.6001,40.82004c-1.91992,-3.25 -1.41992,-8.5 -1.41992,-8.5s2.30982,-8.49 -1.89014,-9.99c-2.62011,-0.95 -4.96,1.84 -6.35009,4.06a8.17316,8.17316 0 0 1 -6.04981,4.02c-5.32007,0.49 -8.12012,-4.06 -9.15014,-6.26a5.21027,5.21027 0 0 0 -2.21,-2.46c-4.6101,-2.4 -5.84008,6.14 -5.84008,6.14a7.129,7.129 0 0 1 3.08007,0.13a7.9332,7.9332 0 0 1 2.84009,1.31994a8.28647,8.28647 0 0 1 2.16992,2.25a6.60867,6.60867 0 0 1 1.13013,2.87a24.08305,24.08305 0 0 0 -4.17016,-3.9a15.861,15.861 0 0 0 -2.37989,-1.44c-0.83008,-0.45 -1.73,-0.78 -2.67016,-1.23c0,0 -2.56983,1.33 -6.17994,3.18a10.86536,10.86536 0 0 1 2.90015,0.96a13.74847,13.74847 0 0 1 2.58985,1.63a8.82072,8.82072 0 0 1 2.07006,2.35a3.56547,3.56547 0 0 1 0.49,3.09a5.255,5.255 0 0 0 -1.42993,-2.4a23.51668,23.51668 0 0 0 -2.08008,-1.88l-2.26,-1.8a29.13137,29.13137 0 0 1 -2.28,-1.95c-1.93994,1 -4.18994,2.13995 -6.49,3.32a8.75294,8.75294 0 0 1 3.02,0.74a10.66064,10.66064 0 0 1 2.69,1.64a8.7003,8.7003 0 0 1 2.03,2.48a5.7434,5.7434 0 0 1 0.65015,3.1a16.81188,16.81188 0 0 0 -1.63013,-2.45a21.07505,21.07505 0 0 0 -2.02,-1.99c-1.46,-1.23 -3.05981,-2.28 -4.74,-3.52l-0.01,0c-3.86987,1.97 -7.91992,4 -11,5.5c-8.32006,4.05 -6.48,7.93 -6.48,7.93a4.48981,4.48981 0 0 1 0.3899,-1.52a2.207,2.207 0 0 1 1.12011,-1.17a2.45994,2.45994 0 0 1 1.64991,-0.02a4.2211,4.2211 0 0 1 1.4602,0.75a6.37607,6.37607 0 0 1 1.87988,2.64a8.41451,8.41451 0 0 0 1.76,2.38a9.20577,9.20577 0 0 0 2.44,1.65a12.81794,12.81794 0 0 0 2.85009,0.85a19.78025,19.78025 0 0 0 5.95,0.01l0.02,0q5.31006,-1.305 10.72,-2.21c1.81006,-0.29 3.62012,-0.54 5.46,-0.71c0.92016,-0.08 1.85009,-0.12 2.79,-0.13c0.47,0.01 0.9502,0.05 1.41993,0.07c0.47021,0.07 1.04,0.16 1.43017,0.23a24.79415,24.79415 0 0 0 5.27,0.3a48.42381,48.42381 0 0 0 5.37988,-0.48a45.69216,45.69216 0 0 0 5.3,-1.09a19.20366,19.20366 0 0 0 2.54,-0.91a7.60359,7.60359 0 0 0 2.27,-1.46a10.97046,10.97046 0 0 1 -4.65991,2.83a33.57868,33.57868 0 0 1 -5.30029,1.47a47.96984,47.96984 0 0 1 -5.46973,0.76a22.90764,22.90764 0 0 1 -5.6001,-0.12a17.67264,17.67264 0 0 0 -5.24,-0.03c-1.78,0.18 -3.57007,0.44 -5.3501,0.73c-3.55981,0.61 -7.12988,1.32 -10.65991,2.11l-0.02,0l-0.05,0.01a20.2052,20.2052 0 0 1 -6.43994,-0.18a13.1441,13.1441 0 0 1 -3.08008,-1.09a10.27439,10.27439 0 0 1 -2.62988,-1.95a9.50211,9.50211 0 0 1 -1.81006,-2.72a11.12926,11.12926 0 0 0 -0.6101,-1.39a5.00474,5.00474 0 0 0 -0.90992,-1.15a3.773,3.773 0 0 0 -1.24,-0.76a2.15367,2.15367 0 0 0 -1.40991,-0.11005a3.08773,3.08773 0 0 0 -1.62012,2.41c0.38013,12.29 18.79,10.48 32.55005,6.63c13.77,-3.85 19.29,-1.21 19.29,-1.21c8.01,3.14 11.16992,-0.02 12.37989,-3.69a10.64126,10.64126 0 0 0 -1.14991,-8.66989zm-13,2.85c-2.54,2.44 -6.31006,0.32 -6.81006,-1.55c-0.5,-1.88 1.74,-4.21 5.01,-5.23c3.26,-1.01 6.31006,-0.31 6.81006,1.56s-2.05004,2.38996 -5.01,5.21998l0,0.00002zm39.14102,-183.89779a8.25715,8.25715 0 0 1 -2.56836,-0.81293a9.83348,9.83348 0 0 1 -2.26269,-1.51995a7.72739,7.72739 0 0 1 -1.66529,-2.20606a5.15818,5.15818 0 0 1 -0.47631,-2.6828a10.92944,10.92944 0 0 0 1.15332,2.29456a12.70857,12.70857 0 0 0 1.66333,1.8573a21.37713,21.37713 0 0 0 1.98486,1.58868c0.70093,0.49799 1.42139,0.98315 2.17114,1.4812zm-53.04248,-16.57294a6.5564,6.5564 0 0 1 -0.17895,2.244a7.35747,7.35747 0 0 1 -0.85254,2.11566a5.29566,5.29566 0 0 1 -1.59619,1.70588a3.40068,3.40068 0 0 1 -2.22852,0.54644a6.28021,6.28021 0 0 0 1.74585,-1.15979a8.10273,8.10273 0 0 0 1.22363,-1.60962a40.33784,40.33784 0 0 0 1.88672,-3.84257zm113.52346,128.61796q-8.67693,-0.07 -17.35386,-0.07783c0.20747,0.45136 0.41494,0.90271 0.62773,1.34888c5.57715,-0.01552 11.149,-0.0311 16.72613,-0.07784l35.1594,-0.21785c11.71971,-0.1297 23.43968,-0.20235 35.15939,-0.37872c-11.71971,-0.17644 -23.43968,-0.249 -35.15939,-0.37872l-35.1594,-0.21792zm-70.3188,-0.18157l-20.34231,0.04148c0.00532,0.50323 0.01039,0.99613 0.01571,1.47339l20.3266,0.04155l29.795,-0.06232c-0.3164,-0.48245 -0.64344,-0.95971 -0.96491,-1.4371l-28.83009,-0.057zm-140.63759,0.77821c11.72,0.17637 23.43968,0.25421 35.15939,0.38391l35.1594,0.21266c8.25426,0.06751 16.50853,0.07784 24.76254,0.09342c-0.04661,-0.46175 -0.09323,-0.9183 -0.13477,-1.38c-8.21272,0.01558 -16.42012,0.026 -24.62777,0.09341l-35.1594,0.21273c-11.71971,0.12966 -23.43943,0.20743 -35.15939,0.38387z"/>
   </svg>
  </g>
 </g>
</svg>